/* XPM */
static char *icon-16[] = {
/* columns rows colors chars-per-pixel */
"16 16 9 1",
"  c black",
". c #585858",
"X c #AC4000",
"o c yellow",
"O c #808080",
"+ c #A0A0A0",
"@ c gainsboro",
"# c #FFC0C0",
"$ c None",
/* pixels */
"$$....$$$$$$$$$$",
"$.oooo.$$$$$$$$$",
".o oo o.$$$$$$$$",
".oooooo.$$$$$$$$",
".o oo o.$$$$$$$$",
".oo  oo.$$$$$$$$",
"$.oooo.$$$$$$$$$",
"$$....$$$$$$$$$$",
"$$$$$$$$$++++$$$",
"$$$++++++####+++",
"$$$+###########+",
"$$$+###########+",
"XXX+#O#O#O#O#O#+",
"XXX+O#O#O#O#O#O+",
"$$$+#O#O#O#O#O#+",
"$$$+++++++++++++"
};
