/* XPM */
static char *icon[]={
"48 48 6 1",
". c None",
"# c #000000",
"d c #808080",
"c c #a13f00",
"b c #ffc0c0",
"a c #ffff00",
"...........#######..............................",
"........###aaaaaaa###...........................",
"......##aaaaaaaaaaaaa##.........................",
".....#aaaaaaaaaaaaaaaaa#........................",
"....#aaaaaaaaaaaaaaaaaaa#.......................",
"...#aaaaaaaaaaaaaaaaaaaaa#......................",
"..#aaaaaaaaaaaaaaaaaaaaaaa#.....................",
"..#aaaaa##aaaaaaaa###aaaaa#.....................",
".#aaaaaa###aaaaaaa###aaaaaa#....................",
".#aaaaaa##aaaaaaaa###aaaaaa#....................",
"#aaaaaaaaaaaaaaaaaaaaaaaaaaa#...................",
"#aaaaaaaaaaaaaaaaaaaaaaaaaaa#...................",
"#aaaaaaaaaaaaaaaaaaaaaaaaaaa#...................",
"#aaaaaaaaaaaaaaaaaaaaaaaaaaa#...................",
"#aaaaaaaaaaaaaaaaaaaaaaaaaaa#...................",
"#aaaaaaaaaaaaaaaaaaaaaaaaaaa#...................",
"#aaaaaaaaaaaaaaaaaaaaaaaaaaa#...................",
"#aaaaaaaaaaaaaaaaaaaaaaaaaaa#...................",
".#aaaaaaaaaaaaaaaaaaaaaaaaa#....................",
".#aaaaaa#aaaaaaaaaaa#aaaaaa#....................",
"..#aaaaaa#aaaaaaaaa#aaaaaa#.....................",
"..#aaaaaaa###aaa###aaaaaaa#.....................",
"...#aaaaaaaaa###aaaaaaaaa#......................",
"....#aaaaaaaaaaaaaaaaaaa#.......................",
".....##aaaaaaaaaaaaaaa##........................",
".......##aaaaaaaaaaa##..........................",
"........####aaaaa####...........................",
"............#####...............................",
"................................................",
".................................###########....",
"........................#########bbbbbbbbbb##...",
"...........##############bbbbbbbbbbbbbbbbbbb####",
"..........#bbbbbbbbbbbbbbbbbbbbbbbbbbbbbbbbbbbb#",
"..........#bbbbbbbbbbbbbbbbbbbbbbbbbbbbbbbbbbbb#",
"..........#bbbbbbbbbbbbbbbbbbbbbbbbbbbbbbbbbbbb#",
"..........#bbbbbbbbbbbbbbbbbbbbbbbbbbbbbbbbbbbb#",
"..........#bbbbbbbbbbbbbbbbbbbbbbbbbbbbbbbbbbbb#",
"..........#bbbbbbbbbbbbbbbbbbbbbbbbbbbbbbbbbbbb#",
"..........#bbbbbbbbbbbbbbbbbbbbbbbbbbbbbbbbbbbb#",
"###########bbbbbbbbbbbbbbbbbbbbbbbbbbbbbbbbbbbb#",
"#ccccccccc#bbddddddddddddddddddddddddddddddddbb#",
"#ccccccccc#bbbbbbbbbbbbbbbbbbbbbbbbbbbbbbbbbbbb#",
"#ccccccccc#bbddddddddddddddddddddddddddddddddbb#",
"#ccccccccc#bbbbbbbbbbbbbbbbbbbbbbbbbbbbbbbbbbbb#",
"###########bbddddddddddddddddddddddddddddddddbb#",
"..........#bbbbbbbbbbbbbbbbbbbbbbbbbbbbbbbbbbbb#",
"..........#bbbbbbbbbbbbbbbbbbbbbbbbbbbbbbbbbbbb#",
"..........######################################"};
