/* XPM */
static char * unknown[] = {
"32 32 6 1",
"  s None c None",
". c #808080",
"# c #ffff00",
"a c #000000",
"b c #ffc0c0",
"c c #a13f00",
"        aaa                     ",
"     aaa###aaa                  ",
"   aa#########aa                ",
"  a#############a               ",
" a###############a              ",
" a###aa#####aa###a              ",
" a###aa#####aa###a              ",
"a#################a             ",
"a#################a             ",
"a#################a             ",
"a#################a             ",
"a#################a             ",
" a####a#####a####a              ",
" a#####a###a#####a              ",
" a######aaa######a              ",
"  a#############a               ",
"   aa#########aa                ",
"     aaa###aaa                  ",
"        aaa                     ",
"                      aaaaaaa   ",
"                aaaaaabbbbbbba  ",
"       aaaaaaaaabbbbbbbbbbbbbbaa",
"       abbbbbbbbbbbbbbbbbbbbbbba",
"       abbbbbbbbbbbbbbbbbbbbbbba",
"       abbbbbbbbbbbbbbbbbbbbbbba",
"       abbbbbbbbbbbbbbbbbbbbbbba",
"aaaaaaaabbbbbbbbbbbbbbbbbbbbbbba",
"accccccab.....................ba",
"accccccabbbbbbbbbbbbbbbbbbbbbbba",
"aaaaaaaab.....................ba",
"       abbbbbbbbbbbbbbbbbbbbbbba",
"       aaaaaaaaaaaaaaaaaaaaaaaaa"};